<svg width="18" height="18" viewBox="0 0 18 18" fill="none" xmlns="http://www.w3.org/2000/svg">
<path d="M5.83325 14C4.91658 14 4.17492 14.75 4.17492 15.6667C4.17492 16.5833 4.91658 17.3333 5.83325 17.3333C6.74992 17.3333 7.49992 16.5833 7.49992 15.6667C7.49992 14.75 6.74992 14 5.83325 14ZM0.833252 0.666664V2.33333H2.49992L5.49992 8.65833L4.37492 10.7C4.24159 10.9333 4.16659 11.2083 4.16659 11.5C4.16659 12.4167 4.91658 13.1667 5.83325 13.1667H15.8333V11.5H6.18325C6.06659 11.5 5.97492 11.4083 5.97492 11.2917L5.99992 11.1917L6.74992 9.83333H12.9583C13.5833 9.83333 14.1333 9.49166 14.4166 8.975L17.3999 3.56666C17.4666 3.45 17.4999 3.30833 17.4999 3.16666C17.4999 2.70833 17.1249 2.33333 16.6666 2.33333H4.34159L3.55825 0.666664H0.833252ZM14.1666 14C13.2499 14 12.5083 14.75 12.5083 15.6667C12.5083 16.5833 13.2499 17.3333 14.1666 17.3333C15.0833 17.3333 15.8333 16.5833 15.8333 15.6667C15.8333 14.75 15.0833 14 14.1666 14Z" fill="#868585"/>
</svg>
